<svg width="81" height="81" viewBox="0 0 81 81" fill="none" xmlns="http://www.w3.org/2000/svg">
<circle cx="40.5" cy="40.5" r="40.5" fill="#373A40"/>
<path d="M29.6454 32.1473C29.8512 29.4431 30.8946 27.3268 32.7758 25.7983C34.657 24.2699 37.0966 23.5057 40.0947 23.5057C42.0935 23.5057 43.813 23.8731 45.2533 24.6079C46.7229 25.3134 47.8252 26.2833 48.56 27.5179C49.3242 28.7524 49.7064 30.1486 49.7064 31.7064C49.7064 33.5288 49.1773 35.1013 48.1191 36.424C47.0903 37.7467 45.7383 38.5991 44.0628 38.9813V39.2017C45.9734 39.672 47.4872 40.5979 48.6041 41.9794C49.721 43.3609 50.2795 45.1686 50.2795 47.4024C50.2795 49.0779 49.8974 50.5916 49.1332 51.9437C48.369 53.2664 47.2226 54.3099 45.6942 55.0741C44.1657 55.8383 42.3286 56.2205 40.1829 56.2205C37.0672 56.2205 34.51 55.4121 32.5113 53.7955C30.5125 52.1495 29.3956 49.8274 29.1604 46.8293H33.0403C33.2461 48.5929 33.9662 50.0332 35.2007 51.1501C36.4353 52.267 38.0813 52.8255 40.1388 52.8255C42.1964 52.8255 43.7542 52.2964 44.8124 51.2383C45.8999 50.1507 46.4437 48.7545 46.4437 47.0497C46.4437 44.8452 45.7089 43.258 44.2392 42.288C42.7695 41.318 40.5503 40.833 37.5816 40.833H36.5675V37.4822H37.6257C40.3299 37.4528 42.3727 37.0119 43.7542 36.1595C45.1357 35.2777 45.8264 33.9256 45.8264 32.1032C45.8264 30.5454 45.312 29.2962 44.2833 28.3556C43.2839 27.415 41.8436 26.9447 39.9625 26.9447C38.1401 26.9447 36.6704 27.415 35.5535 28.3556C34.4365 29.2962 33.7752 30.5601 33.5694 32.1473H29.6454Z" fill="white"/>
</svg>
