<svg width="81" height="81" viewBox="0 0 81 81" fill="none" xmlns="http://www.w3.org/2000/svg">
<circle cx="40.5" cy="40.5" r="40.5" fill="#373A40"/>
<path d="M29.2486 52.7814C32.9815 49.7833 35.9062 47.329 38.0225 45.4184C40.1388 43.4784 41.9171 41.465 43.3574 39.3781C44.8271 37.2617 45.5619 35.1895 45.5619 33.1614C45.5619 31.2508 45.0916 29.7518 44.151 28.6642C43.2398 27.5473 41.7555 26.9888 39.6979 26.9888C37.6992 26.9888 36.1413 27.6207 35.0244 28.8846C33.9368 30.1192 33.349 31.7799 33.2608 33.8668H29.3809C29.4984 30.5748 30.4978 28.0322 32.379 26.2392C34.2602 24.4463 36.6851 23.5498 39.6538 23.5498C42.6813 23.5498 45.0769 24.3875 46.8405 26.0629C48.6335 27.7383 49.53 30.0457 49.53 32.985C49.53 35.4247 48.7952 37.8055 47.3255 40.1276C45.8852 42.4203 44.2392 44.4484 42.3874 46.212C40.5356 47.9462 38.1695 49.9744 35.2889 52.2964H50.4559V55.6473H29.2486V52.7814Z" fill="white"/>
</svg>
