<svg width="237" height="146" viewBox="0 0 237 146" fill="none" xmlns="http://www.w3.org/2000/svg">
<g filter="url(#filter0_f_1583_6177)">
<path fill-rule="evenodd" clip-rule="evenodd" d="M164.298 18.9196C175.654 17.9153 185.092 20.5008 194.585 23.5385C225.721 33.5188 238.145 53.3738 220.462 76.525C192.953 112.437 122.334 142.349 64.4106 139.567C51.5839 138.962 34.3414 139.151 20.6013 130.239C7.82031 121.953 6.8996 110.364 10.9164 99.043C14.9969 87.4396 24.2102 76.0956 31.735 68.6086C64.6413 35.9334 134.304 1.39472 201.782 6.91357C203.167 7.00956 204.466 6.39624 204.754 5.53517C205.041 4.6741 204.258 3.88373 202.969 3.77597C133.51 -1.90204 61.5942 33.4705 27.7249 67.0984C18.3648 76.4316 6.47351 91.5567 4.30497 105.972C2.85559 115.82 5.87827 125.339 16.9636 132.59C31.5599 142.088 49.9016 142.063 63.5185 142.713C123.317 145.589 196.374 114.758 224.721 77.6753C243.763 52.7877 230.565 31.4063 197.082 20.6808C186.87 17.3742 176.537 14.7002 164.212 15.7913C162.853 15.9121 161.773 16.7106 161.877 17.5643C161.885 18.4297 163.036 19.0287 164.298 18.9196Z" fill="#F7D99B"/>
</g>
<defs>
<filter id="filter0_f_1583_6177" x="0.966797" y="0.171875" width="235.525" height="145.728" filterUnits="userSpaceOnUse" color-interpolation-filters="sRGB">
<feFlood flood-opacity="0" result="BackgroundImageFix"/>
<feBlend mode="normal" in="SourceGraphic" in2="BackgroundImageFix" result="shape"/>
<feGaussianBlur stdDeviation="1.5" result="effect1_foregroundBlur_1583_6177"/>
</filter>
</defs>
</svg>
